<svg xmlns="http://www.w3.org/2000/svg" viewBox="0 0 744.25 275.33"><defs><style>.cls-1{fill:#4e4e4e;}</style></defs><g id="Capa_2" data-name="Capa 2"><g id="Diseño"><path class="cls-1" d="M504.05,242.45l-20.3-2.64c-.23,12.19,3.41,24.37-3.16,35.17l-2.65.35-7.53-24.46c-15.14.53-30.5,1.27-45.86,1.53-6.24.1-12.51-.78-18.75-1.35-5.92-.54-11.8-1.42-17.72-1.86-3.78-.28-7.6-1.8-11.06,2.25-2,2.33-5.47,1.61-7.76-1.51a7.35,7.35,0,0,0-4.47-2.93c-10.47-1.09-21-2.17-31.47-2.57-5.27-.2-10.59,1.21-15.9,1.57-6.81.46-13.63.55-20.45.91-9.13.47-18.25,1.11-27.39,1.51-2.79.12-5.78.23-8.38-.59-22.37-7-45.25-3-67.92-3.26-1.82,0-3.66.85-6.27,1.5,1.26,5,2.49,9.7,3.65,14.43,1.42,5.77.31,7.2-6.65,8l-4.25-22.64L117.31,249c-.41,8.11-.8,16-1.28,25.52-10.26-7-9-15.95-7.87-24.66l-21.83-3.13.1-3c5.53-.55,11-1.41,16.59-1.52,4.1-.08,6-1.16,5.71-5.58-1.14-17.58-1.65-35.21-3.33-52.73-.65-6.89-4.46-13.43-5.56-20.33-1.43-8.87-1.55-17.93-2.28-26.91-.66-8.1-1.67-8.75-9.22-8.51-5,.15-10.07-.63-15.11-.87-2.84-.13-5.69,0-9,0,.52,2.72.53,5.32,1.51,7.48,4.52,9.92,4.61,20.29,4.39,30.93-.41,19.93-.19,39.87,0,59.8,0,5.35.76,10.7,1.32,16,.39,3.68.2,8.06-3.89,8.09-2.27,0-5.85-4.09-6.59-6.92-1.61-6.24-1.83-12.84-2.55-19.31-3.45-30.75-6-61.63-14.38-92.36-3,.28-6.19.53-9.34.89-6.8.78-13.6,1.53-20.38,2.47a29.6,29.6,0,0,0-7.12,1.9c-3.78,1.55-6.29-.45-7.11-3.36-.41-1.48,1.64-4.71,3.37-5.55,9.71-4.75,18.37-10.24,24.46-19.82A52.16,52.16,0,0,1,48.75,88.49c4.08-2,6.75-7.08,9.75-11,8-10.49,15.85-21.1,23.72-31.69,2.62-3.52,4.79-7.42,7.72-10.64,5.47-6,11.35-11.59,16.74-17L95.05,16.45c.53-3.83,1-7.12,1.52-11.08,4.69.62,9,1.17,13.28,1.76,5.71.78,11.69,3.91,16.5-3.66,1.84,6.52,5.62,7.09,10.14,7.06,17-.11,34.08.43,51.1,0,11.73-.32,23.41-2.13,35.14-2.85,7.83-.47,15.7-.14,23.55-.25q27.24-.42,54.46-.93c.77,0,1.53-.15,2.3-.18,37.73-1.22,75.46-2.62,113.19-3.55,13.39-.33,26.83,1.08,40.21.67,22-.68,44-2.23,66-3.36C535-.59,541.18,4.53,543.16,17a8.62,8.62,0,0,0,.79,3.21c4.36,6.94,8.73,13.87,13.28,20.69,3.91,5.83,8.6,10.73,15.89,12.37a12,12,0,0,1,4.55,2.37c8.32,6.56,17.9,9.39,28.18,11.65,9.31,2.05,18,6.84,27,10.41,21.33,8.46,44,11.44,66.3,15.59,5.88,1.09,12.13.17,18.68.17a16.68,16.68,0,0,1,1.37-4.4c1.84-3.13,5.27-3.25,6.2-.2,2,6.52,6.45,4.55,10.63,4.32,3.46-.19,7.49-1.52,8.22,4.34l-14.54,4c.88,4.2,2,6.92,1.93,9.61-.53,20.55.13,41,4.36,61.19.61,2.93.06,6.1.1,9.16,0,2.76.45,5.56.11,8.28-.28,2.25-1.48,4.37-2.14,6.59a15.87,15.87,0,0,0-1,4.61c.14,14,.41,27.94.57,41.91a7.2,7.2,0,0,1-.86,3.87c-.87,1.32-2.22,2.79-3.61,3.12-.79.2-2.37-1.58-3.1-2.78a10.82,10.82,0,0,1-1.32-4.35c-.86-7.8-2-15.6-2.28-23.43-.6-17.12-.26-34.21.4-51.36.66-17.43-2.72-35-4.38-52.51-.38-4-.93-8-1.53-12.95H692.73c1.79,17.44,3.65,34.94,5.36,52.45,2.44,24.95,4.72,49.91,7.22,74.86.29,2.91,1.59,5.71,2.24,8.6.39,1.75,1.22,4.28.42,5.19-1.16,1.32-3.6,2-5.53,2-5.64.23-11.3,0-17,0-19.13,0-38.26-.34-57.38,0-7.72.15-15.4,1.85-23.12,2.68-3.4.37-6.84.41-10.27.47-5.23.09-10.48.4-15.68,0-7-.51-14-1.53-21-2.42-8-1-15.9-2.13-23.85-3.16-2.81-.36-5.63-.69-8.46-.87-4.39-.28-8.72-1.59-11.61,4.11-2,4-6.27,3.28-8.59-.76A28,28,0,0,1,504.05,242.45ZM174.43,127.08c7.74-1.42,8.84-.34,8,5.89a75.81,75.81,0,0,0-.85,12.57c1.08,27.77,2.33,55.52,3.52,83.28.26,5.88,1.46,6.47,7.6,6.05,10.26-.69,20.55-.88,30.83-1.19a75.84,75.84,0,0,1,10.34.18c5.84.63,11.66,1.53,17.46,2.48,5.07.83,10.15,2.89,15.14,2.67,19.52-.89,39.12-1.6,58.45-4.21a72.78,72.78,0,0,1,23.48.14c2.62.49,5.14,1.46,7.75,2,3,.6,6.11.93,9.08,1.37,1.89-11.73-1.41-21.57-4.65-31.39-3.76-11.37-4.67-22.93-1.6-34.49.77-2.91,3.27-6.64,5.84-7.56a137.94,137.94,0,0,1,22.72-5.73c7.69-1.35,15.66-1.17,23.27-2.76,10.81-2.26,18.25,2.46,18.1,13.48-.27,18.36-1.25,36.72-2,55.08-.21,5-.67,10-.94,14.06,8.92,1.13,16.62,2.13,24.32,3.08,3.13.38,5.79.63,7-3.69.52-1.86,3.69-3.37,6-4.24,2.55-1,5.45-1,8.81-1.6-.52-8.47-.55-16.52-1.61-24.44-1.9-14.34-4.45-28.59-6.62-42.89-.26-1.68.29-3.46.14-5.16-.26-3-.81-6-1.18-9-.52-4.33-1.13-8.66-1.45-13-1-13.13-2.57-26.1-7.89-37.39-11.56,2.2-22.5,5.17-33.61,6.18-12.48,1.15-25.12.64-37.68.63-4.9,0-9.79-.79-14.69-.92-5.14-.14-10.3.06-15.45.13-20.46.25-40.95-.19-61.35,1-11.74.71-23.24,4.74-35,6.15-20.5,2.46-41.11,4-61.66,6.06-5.25.53-10.42,2-15.68,2.48-4.26.41-8.62-.21-12.89.13-8.17.67-16.32,1.59-24.46,2.6-8.74,1.09-17.47,2.24-26.14,3.76-1.37.24-3.52,2.71-3.37,3.9,1.23,9.63,3,19.2,4.44,28.8a77.24,77.24,0,0,1,1.37,11.87c0,7.17-.7,14.33-.86,21.5-.17,7.41,0,14.84-.07,22.25-.1,6.1-.62,12.19-.6,18.28,0,3.13,1.87,4.4,5.28,4.44,19.47.21,38.95.86,59-6.62C178.26,198.68,176.35,163,174.43,127.08Zm48.86-19.36L337.31,93c0-6.15-1.28-13.49.27-20.19,3.15-13.62,1.24-27.43,3.08-41,.45-3.36-1.06-4.53-4.09-4.61-5.17-.13-10.35-.2-15.51-.47-20.28-1-40.56-2.09-60.83-3.33-4.21-.25-6.69,1-8.45,5-3.33,7.49-7.33,14.68-10.62,22.19-1.07,2.46-.81,5.51-1.36,9.79-8,1.15-8.34,11.29-14.06,17.43-6.64-4.6,1.68-8.67-.09-13.24-4.49.32-9.24.59-14,1-18.69,1.67-37.36,3.56-56.06,5-6.38.49-10.37,3.63-14.18,9.44H181l.46,1.83c-3.76,1.26-7.45,3.24-11.3,3.64-11,1.15-22.17,1.58-33.25,2.48-2,.16-4.4.72-5.75,2C125.52,95.33,120.24,101,114,107.55c4.82.22,8.23.67,11.6.48,23.9-1.39,47.79-2.84,71.67-4.5,3.08-.22,7.06-.92,8.88-3,3.58-4,5.94-9.13,8.78-13.75l-19.3-4.42.23-1.8c2.22-.28,4.43-.7,6.66-.82,6.41-.35,12.84-.48,19.25-.88,7.13-.45,11.12,4.51,8.65,11.21C228.27,95.8,225.85,101.38,223.29,107.72Zm294.06-8.41c0,8.09.12,15.13,0,22.16-.27,12.61-1.85,25.31,3.56,37.39a10,10,0,0,1,.44,4c0,13.58-.05,27.16-.07,40.73,0,9.15,0,18.3,0,27.69,9.1,1.56,17.86,3.66,26.73,4.46,15.25,1.37,30.58,1.83,45.85,2.92,3,.21,6,1.57,9.2,2.47,8.58-1.67,11.6-7.41,9.06-16.27-7.28-2.91-8.12,5.06-12.81,7.95,1.33-6.28-1.3-7.87-6.74-8.58-5.19-.67-10.11-3.43-16.9-5.91,7.13-4.37,9.06-9,7.61-15-1.29-5.4-2.28-10.87-3.16-15.15.72-4.71,3-9.37,1.62-12.4-4-8.83-3.64-17.83-3.61-27,0-12.26,1.89-14.11,14.55-13.56,2.68.11,5.35.42,8,.5,3.26.09,6.53,0,10.11,0-1.68-11-3.3-21-4.66-31.05-.48-3.47-2.37-4.3-5.43-4.34-21.84-.28-43.68-.65-65.52-.94C529.1,99.24,523,99.31,517.35,99.31Zm90.4-13.77-39.38-2.37c-1-4.48,1-5.17,4.26-4.93,9.35.66,18.71,1.15,28.06,1.71a7.51,7.51,0,0,0-3.84-2.43c-5.93-2.1-11.77-4.48-17.8-6.22-5.77-1.67-11.68-3.34-17.63-3.85-9.45-.81-19-.65-28.48-.9a17,17,0,0,1,7.69-3.5c3-.65,6.21-.61,9-1.69,3.17-1.23,6-3.37,9-5.11-1.69-2.23-3.44-4.41-5.06-6.7s-3.29-4.67-4.71-7.13c-1.52-2.64-2.59-5.55-4.19-8.14-7.13-11.54-7.17-11.51-20.36-8.7a14.09,14.09,0,0,1-1.71.25c-17.75,1.14-35.51,2.22-53.26,3.46-1.78.13-3.49,1.24-5.24,1.89a40.17,40.17,0,0,1,3.64,4.22,38.11,38.11,0,0,1,3,5.7c-5.32,3.11-2.22,7.09-1,10.52,1.38,3.87,3.45,7.5,5.23,11.24h36.83l.55,1.65c-3.13,1.18-6.18,3-9.41,3.39-7.22.88-14.54.89-21.78,1.61-1.85.18-3.58,1.65-5.36,2.53l.71,1.66,41.27,2.45.26,2.11c-3.52.92-7,2.46-10.56,2.63-8.62.4-17.27.42-25.89.09-6-.23-9.36,2-10.31,9.08,2.56.44,5.19,1.28,7.82,1.27,9.44,0,18.89-.5,28.34-.53,7.66,0,15.33.4,23,.52,23.29.33,46.59.47,69.88,1C605.31,92.48,608.52,91.89,607.75,85.54ZM629.31,103c0,9,.15,17.27,0,25.48-.12,5.29,2,7.25,7.26,6.44a52.34,52.34,0,0,1,8.59-.19c5.37.06,10.37-.29,11.73-7,.23-1.17,1.24-2.19,1.91-3.32,9.23,6.94,12.5,11.23,14.54,25.44,2.25,15.72,6.63,31.43,2.33,47.63-1.32,5-1.15,10.42,6.07,14.48a16.72,16.72,0,0,1-5.53,4c-8.23,4.12-16.5,8-26,7.94-6.89,0-13.78.5-20.68.63-3,.06-4.61,1.08-4.8,4.29a67.77,67.77,0,0,1-1.31,7.64c25,1.4,49.35,1.72,74.22-1.27,0-7.56.35-14.42-.09-21.24-.49-7.62-1.81-15.19-2.57-22.81-2.78-27.74-5.58-55.47-8.13-83.24-.42-4.63-2.18-6.28-6.72-6.22-13.74.19-27.48,0-41.22.18A78,78,0,0,0,629.31,103Zm-156.24-3.6c.91,4.16,1.64,6.71,2,9.3,4.12,28.86,7,57.79,5.57,87-.54,11-.09,22.1-.09,33.57,6.7,0,12.78-.22,18.83.09,3.82.2,5.19-1,4.87-4.83-.52-6.1-1-12.23-.95-18.35.08-32.17.34-64.35.43-96.52A14.21,14.21,0,0,0,502.4,103c-.87-1.57-3-3.37-4.65-3.44C489.93,99.23,482.07,99.43,473.07,99.43Zm-64,142.21c1.66-6.83,4.2-13.72,4.9-20.8,1.72-17.32,2.57-34.71,3.8-52.08.29-4-1.57-5.6-5.5-5.15-8,.94-16,1.63-23.9,2.8a31.79,31.79,0,0,0-9.74,3.16c-1.6.84-3.46,3.25-3.4,4.88.31,8.14,1.3,16.26,1.89,24.39.25,3.41.85,7,0,10.22-2.62,10.11.66,19.56,1.73,29ZM447.15,90.35c14.74.47,20.89-5.95,19.53-18.59a10.38,10.38,0,0,1-.09-3.42c1.18-4.83-.53-6.11-5.34-5.34-8.11,1.31-16.29,2.31-24.48,3-27.59,2.41-55.2,4.55-82.79,7-11.12,1-11.43,1.65-9.31,12.78a20.23,20.23,0,0,1,.4,2.26c.35,4.43,2.42,6.19,7.09,5.66,10.83-1.23,21.71-2.19,32.58-3C401.88,89.43,419,86.32,436.25,89,440.41,89.65,444.6,90,447.15,90.35ZM29.63,118.72l1,2.25c11.56-.73,23.16-1.14,34.66-2.42a15.4,15.4,0,0,0,9.06-5.18c9.93-11.88,19.31-24.23,29.05-36.29,10.3-12.77,20.93-25.28,31.12-38.14,4-5.09,7.23-10.84,10.94-16.47-12.46-1.24-13.45-1-21.12,7.31-3,3.22-5.31,7-8.26,10.26-4.34,4.75-8.87,9.33-13.5,13.79-3.7,3.56-9.69,6.19-11.07,10.4-2.74,8.4-9.38,12.46-15.28,17.16-10,7.93-21,14.55-31.12,22.34C39.44,108.09,34.75,113.68,29.63,118.72ZM160,62.14c4.23,0,6.88.18,9.51,0,17.57-1.4,35.16-2.64,52.67-4.54,3.85-.42,9.1-2.3,10.81-5.21,5-8.45,8.45-17.77,12.7-27.14-3.88-.2-6.53-.33-9.18-.48-13.36-.73-26.71-1.59-40.08-2.09-2.24-.08-5.36.73-6.66,2.3C180,36.71,170.58,48.77,160,62.14ZM81.57,116.89c7.75-.85,13.93-1,18.72-5.91,9.61-9.88,19.31-19.67,28.81-29.65A11.2,11.2,0,0,0,132,75.52c.88-6.28,5.06-10.37,11.17-12.11,4-1.14,8.44-3.12,11.07-6.14,7.65-8.76,14.52-18.21,21.62-27.45,1.67-2.18,3-4.59,4.88-7.4-6.09,0-11.52,1.08-16.26-.27-6.3-1.8-9.47.82-12.86,5.16q-29.65,38-59.5,75.8C88.85,107.26,85.69,111.49,81.57,116.89ZM346,65.72c39.43-7,79-1.13,117.55-10.69a39.92,39.92,0,0,1-1.18-4.59c-.69-5-3.29-6.74-8.48-6.31-9.92.81-19.9.86-29.84,1.33-25.58,1.22-51.15,2.5-77,3.77C346.7,55,346.42,59.5,346,65.72Zm3.23-37.55c-3.1,12.42-4.59,14.35,10.82,14.67a10.94,10.94,0,0,0,1.14-.09c25.93-1.44,51.86-2.81,77.79-4.37,6-.36,11.93-1.39,18.2-2.16l-1-8Zm300.15,134c-5.64,0-11.47-.14-17.28.14-.92,0-2.34,1.9-2.53,3.08-1,6.21-1.77,12.45-2.2,18.72-.08,1.22,1.75,3.69,2.7,3.7,6.24,0,12.48-.47,19.31-.82Zm-.47,48.58c-.26-5.67-.51-11.11-.78-16.77h-21.4c.44,6.8.85,13.05,1.27,19.54Zm-18.67-55.39c10.7-1.65,23.93,3.69,25.61-13,9.9.6,4.94,6.75,4.69,11.33l5.13-.75c-.45-3.35-.52-6.24-1.32-8.91-.42-1.41-2.15-3.53-3.22-3.49-10.27.44-20.52,1.27-30.89,2Zm41.53,33.13c-1.55-8.6-2.72-16.44-4.57-24.12-.3-1.25-3.55-2.24-5.53-2.42-.93-.09-2.83,1.93-3,3.16-.9,7.53-1.43,15.11-2.14,23.38ZM355.12,21.3H455c.14-.5.28-1,.41-1.51-1.29-.71-2.52-1.88-3.88-2a91.3,91.3,0,0,0-13.7-.9c-25.46,1-50.92,2.1-76.37,3.26A45.74,45.74,0,0,0,355.12,21.3ZM616,187c-.73-8.18-1.26-15.34-2.14-22.45-.11-.84-2.08-2-3.24-2-2-.14-4.07.43-6.59.76.53,7.49,1,14.66,1.58,22.48ZM513.84,161.53l-1.87.16c1.24,22.39-3.54,44.86,1.87,67.19ZM587,165.37c1.24,6.87,2.31,12.76,3.42,18.94l8.08,1.17c-.69-7.52-1.34-14.62-2-22.4ZM614.61,93h35.81l.24-.94-34.61-7.75C615.49,87.73,615.16,89.71,614.61,93Zm41.78,102.42c0,3.87-.31,7.15.12,10.33.23,1.71,2,4.73,2.61,4.62,3-.55,7.31-1.1,8.53-3.19,3.91-6.69-.12-12.37-7.86-12.14C658.86,195.1,657.94,195.27,656.39,195.45ZM586.06,158.2l9.19-1.45c1-5.34,1.9-10.18,2.91-15.65l-12.1,2.35ZM612.5,103c2.27,10.87,4.47,21.37,6.67,31.88l2.08-.36c0-7.36-.14-14.72,0-22.08C621.44,106.93,620.51,102.62,612.5,103Zm.38,107.88c.77-5.8,1.56-11.66,2.36-17.69-2.38-.47-4.26-1.25-6-1.06-1.27.14-3.39,1.51-3.45,2.44-.33,5.37-.16,10.77-.16,16.31Zm-23.07-19.36c.54,5.83,1.16,11.29,1.5,16.75.17,2.81,1.23,4.74,4.08,3.73,1.6-.57,3.58-2.55,3.78-4.11.41-3.13-.45-6.41-.47-9.63C598.67,191.2,598.2,190.72,589.81,191.52ZM478.56,9.75c16.9,2.3,33.51,2.87,50.05.75,0-1-.05-1.95-.08-2.92Zm-13.78,94.19,8,69.29,1.47-.18C470.43,150.09,472,126.48,464.78,103.94Zm43.76-85.43H464.77C466.23,23.17,475.88,23.41,508.54,18.51Zm104.76,137c-.22-4.82-.41-9-.62-13.38h-8.61c.36,4.53.71,8.83,1.07,13.38ZM368.42,206.91l1.54-.29-3-30.9C362.92,186.46,365.43,196.7,368.42,206.91Zm-263-65.65c.66,11.16-1.78,22.65,4.1,32.84l1.57-.23ZM305.64,14l.12.53h34.69l-.08-.53ZM161.28,114l-.18-1.59-22.69,1.86.3,2.54ZM63.23,150.14l-1.87.28Q62.65,163.35,64,176.3l1.11-.11ZM370.3,12.71l-.25-.94-21.46,1.15.12,1.73ZM214.45,100.94l2,1,5.81-12.21L220.71,89Z"/></g></g></svg>