<svg xmlns="http://www.w3.org/2000/svg" viewBox="0 0 22.76 62.9"><defs><style>.cls-1{fill:#1c2c3a;}.cls-2{fill:#f6f4e9;}</style></defs><g id="Capa_2" data-name="Capa 2"><g id="Diseño"><path class="cls-1" d="M4.76,6.59l-3.3,5.72a10.43,10.43,0,0,0-1.4,5.11c0,5-.12,15.41,0,20.29C.27,43,.37,55.08.4,59.51a2.11,2.11,0,0,0,1.66,2A52.17,52.17,0,0,0,12,62.89a42.73,42.73,0,0,0,8.53-1.5,2.11,2.11,0,0,0,1.57-2l.67-41.29a10.41,10.41,0,0,0-1.4-5.39L17.85,6.63a4.8,4.8,0,0,1-.64-2.28L17.15.9a.92.92,0,0,0-.92-.9H6.45a.91.91,0,0,0-.92.89L5.39,4.4A4.82,4.82,0,0,1,4.76,6.59Z"/><path class="cls-2" d="M6.21,46v-.75l8.83,0a.93.93,0,0,0,.7-.22.9.9,0,0,0,.19-.58,4.28,4.28,0,0,0,0-.49,2.17,2.17,0,0,0-.11-.44l.57-.15a4.21,4.21,0,0,1,.16.62,4.16,4.16,0,0,1,.07.63,1.42,1.42,0,0,1-.36,1,1.27,1.27,0,0,1-1,.37Z"/><path class="cls-2" d="M7.49,42.23H6.21v-.74H7.49Zm8.93,0H9.14v-.74h7.28Z"/><path class="cls-2" d="M16.12,35.72s.06.14.14.29a3.56,3.56,0,0,1,.2.56,3.5,3.5,0,0,1,.1.76,1.9,1.9,0,0,1-.15.75,1.33,1.33,0,0,1-.44.55,1.22,1.22,0,0,1-.72.21H9.73v1.08H9.16V38.85H6.66v-.74H9.15V36.32h.57v1.79h5.36a.76.76,0,0,0,.61-.31,1.07,1.07,0,0,0,.21-.65,1.94,1.94,0,0,0-.15-.8,3.16,3.16,0,0,0-.19-.4Z"/><path class="cls-2" d="M9.75,30.78a3.18,3.18,0,0,0,.59,1.81,2.89,2.89,0,0,0,1.52,1.09h4.55v.74l-7.27,0v-.72h1.78a3.59,3.59,0,0,1-1.25-1.06,2.84,2.84,0,0,1-.56-1.41,2.62,2.62,0,0,1,0-.27v-.19Z"/><path class="cls-2" d="M16.54,26.43a3.89,3.89,0,0,1-.29,1.5,3.71,3.71,0,0,1-.82,1.2,4,4,0,0,1-1.2.78,3.62,3.62,0,0,1-1.43.29,3.67,3.67,0,0,1-1.45-.28,3.8,3.8,0,0,1-2-2A3.67,3.67,0,0,1,9,26.44,3.83,3.83,0,0,1,9.31,25a4,4,0,0,1,.83-1.2,3.57,3.57,0,0,1,1.19-.8,3.92,3.92,0,0,1,1.46-.29,3.74,3.74,0,0,1,2.63,1.07,3.71,3.71,0,0,1,.82,1.2A3.85,3.85,0,0,1,16.54,26.43Zm-3.74,3a3.09,3.09,0,0,0,1.57-.41A3.25,3.25,0,0,0,15.49,28a2.85,2.85,0,0,0,.42-1.52,2.94,2.94,0,0,0-.43-1.51,3.19,3.19,0,0,0-1.15-1.1,3.18,3.18,0,0,0-4.26,1.1,2.91,2.91,0,0,0,0,3,3.17,3.17,0,0,0,1.15,1.09A3.12,3.12,0,0,0,12.8,29.46Z"/></g></g></svg>