<svg xmlns="http://www.w3.org/2000/svg" viewBox="0 0 22.84 60.65"><defs><style>.cls-1{fill:#1c2c3a;}.cls-2{fill:#f6f4e9;}</style></defs><g id="Capa_2" data-name="Capa 2"><g id="Diseño"><path class="cls-1" d="M6.79,1.1c0,1.61.15,3.28.09,4.91C6.73,10.41,1.73,13.09.43,17.3A14.16,14.16,0,0,0,0,21.66L.15,53.81a7.21,7.21,0,0,0,.44,3A5.87,5.87,0,0,0,4,59.6c3.85,1.46,8.13,1.18,12.18.46,1.9-.33,4-.87,5.09-2.45a8.08,8.08,0,0,0,1-4.64l.49-31.52a14.25,14.25,0,0,0-.33-4.07c-1.06-3.78-5.05-6.16-6.24-9.9-.63-2-.39-4.16-.45-6.26a1.27,1.27,0,0,0-.3-.94A1.26,1.26,0,0,0,14.8.07,43.71,43.71,0,0,0,7.25.28c-.6.23-.56,1.79-.44,2.43"/><path class="cls-2" d="M12.72,47a2.46,2.46,0,0,1,1.36-2,2.85,2.85,0,0,1,1.26-.28,2.64,2.64,0,0,1,1.48.42,2.8,2.8,0,0,1,1,1.17A3.92,3.92,0,0,1,18.18,48a4.2,4.2,0,0,1-.44,2,2.81,2.81,0,0,1-1.23,1.23l-.42-.54a2.25,2.25,0,0,0,1.05-1,3.27,3.27,0,0,0,.4-1.68A2.75,2.75,0,0,0,17,46.19a2.05,2.05,0,0,0-1.64-.69,2.08,2.08,0,0,0-1.65.71,2.93,2.93,0,0,0-.62,2v.36h-.61v-.39a2.79,2.79,0,0,0-.53-1.83,1.75,1.75,0,0,0-1.39-.64A1.89,1.89,0,0,0,9.45,46a2,2,0,0,0-.67.83,2.87,2.87,0,0,0-.24,1.21,3.15,3.15,0,0,0,.38,1.55,2.42,2.42,0,0,0,1.05,1l-.39.5a2.52,2.52,0,0,1-.89-.68,3.5,3.5,0,0,1-.59-1.08A4.12,4.12,0,0,1,7.89,48a3.78,3.78,0,0,1,.32-1.58,2.62,2.62,0,0,1,.91-1.08,2.36,2.36,0,0,1,1.32-.4,2.27,2.27,0,0,1,1.06.25,2,2,0,0,1,.81.7A2.39,2.39,0,0,1,12.72,47Z"/><path class="cls-2" d="M18.19,40.11a3.74,3.74,0,0,1-.53,2,3.45,3.45,0,0,1-1.42,1.34L16,42.92a3,3,0,0,0,1.16-1.15,3.2,3.2,0,0,0,.44-1.66,3.09,3.09,0,0,0-.33-1.44,2.58,2.58,0,0,0-.93-1,2.48,2.48,0,0,0-1.36-.38,2.43,2.43,0,0,0-1.32.38,2.48,2.48,0,0,0-.89,1A3.15,3.15,0,0,0,12.41,40a3.3,3.3,0,0,0,.32,1.41,2.71,2.71,0,0,0,.91,1.1v.71L8.12,42.09v-5h.66v4.47l3.93.82A2.91,2.91,0,0,1,12,41.28,3.48,3.48,0,0,1,11.77,40a3.68,3.68,0,0,1,.4-1.73A3.25,3.25,0,0,1,13.28,37a2.92,2.92,0,0,1,1.65-.46,3,3,0,0,1,1.7.48,3.39,3.39,0,0,1,1.16,1.3A4,4,0,0,1,18.19,40.11Z"/><path class="cls-2" d="M12.05,27.78a4.83,4.83,0,0,1,2.16.47,3.7,3.7,0,0,1,1.48,1.31,3.62,3.62,0,0,1,0,3.79,3.62,3.62,0,0,1-1.48,1.31,4.7,4.7,0,0,1-2.16.48,4.7,4.7,0,0,1-2.16-.47,3.65,3.65,0,0,1-1.49-1.31,3.29,3.29,0,0,1-.55-1.88,3.46,3.46,0,0,1,.54-1.91,3.73,3.73,0,0,1,1.49-1.31A4.7,4.7,0,0,1,12.05,27.78Zm0,.76a4.26,4.26,0,0,0-1.84.37,3,3,0,0,0-1.25,1,2.72,2.72,0,0,0-.44,1.53A2.65,2.65,0,0,0,9,33a2.9,2.9,0,0,0,1.25,1,4.26,4.26,0,0,0,1.84.37A4.18,4.18,0,0,0,13.89,34a3,3,0,0,0,1.24-1,2.67,2.67,0,0,0,.45-1.53,2.73,2.73,0,0,0-.46-1.53,3,3,0,0,0-1.24-1A4.18,4.18,0,0,0,12.05,28.54Z"/><path class="cls-2" d="M16.12,18.32v.42H13.81a2,2,0,0,0-1.16.26.89.89,0,0,0-.38.79,1.4,1.4,0,0,0,.37,1,2,2,0,0,0,.93.59h2.55v.42H13.81a2.06,2.06,0,0,0-1.16.25.89.89,0,0,0-.37.79,1.48,1.48,0,0,0,.35,1,2,2,0,0,0,.93.6h2.57v.43H12V24.4h1a2,2,0,0,1-.78-.72,1.71,1.71,0,0,1-.28-1,1.28,1.28,0,0,1,.31-.9,1.19,1.19,0,0,1,.81-.42,2.46,2.46,0,0,1-.84-.74,1.76,1.76,0,0,1-.28-1,1.28,1.28,0,0,1,.12-.61,1.11,1.11,0,0,1,.36-.42A1.48,1.48,0,0,1,13,18.4a3.67,3.67,0,0,1,.78-.08Z"/><path class="cls-2" d="M10.28,17v-.43h5a.53.53,0,0,0,.4-.13.52.52,0,0,0,.11-.33,1.41,1.41,0,0,0,0-.28,1.67,1.67,0,0,0-.06-.26l.33-.08a2.18,2.18,0,0,1,.08.36,1.71,1.71,0,0,1,0,.36.73.73,0,0,1-.2.57.71.71,0,0,1-.55.22Z"/></g></g></svg>