<svg xmlns="http://www.w3.org/2000/svg" viewBox="0 0 41.56 60.54"><defs><style>.cls-1{fill:#1c2c3a;}.cls-2{fill:#f6f4e9;}</style></defs><g id="Capa_2" data-name="Capa 2"><g id="Diseño"><path class="cls-1" d="M41.5,38.85c0-6.65-1.77-19.06-2.06-20.53-.16-.81-.45-2.08-.69-3.09a3.94,3.94,0,0,0-1.6-2.36L26.65,5.58a1.89,1.89,0,0,1-.82-1.53l-.06-2.94A1.12,1.12,0,0,0,24.64,0H15.87a1.14,1.14,0,0,0-1.13,1.1l-.08,2.78A1.89,1.89,0,0,1,13.6,5.53L7.15,8.76A3,3,0,0,0,5.51,11c-.73,4.5-2.89,17.53-3.74,20.33C1.35,32.69,1,33.73.69,34.48A10,10,0,0,0,0,38.15v9.26c.12,2.8,1,6.08,2.92,8.17,3.13,3.36,9.5,4.33,13.88,4.67,6.61.51,20.7,1.29,23.52-6.93C42,48.59,41.5,45.49,41.5,38.85ZM12.65,14.25c-.33,3-1,9-1.67,11.75-.89,3.84-2.76,1.18-3.05-.89-.23-1.61.9-8.38,1.42-11.33A1.67,1.67,0,0,1,11,12.41,1.65,1.65,0,0,1,12.65,14.25Z"/><path class="cls-2" d="M27.62,51.36A3.53,3.53,0,0,1,26.47,54a4.43,4.43,0,0,1-1.2.76,3.69,3.69,0,0,1-1.38.27,4.06,4.06,0,0,1-1.43-.25A3.82,3.82,0,0,1,21.25,54a3.75,3.75,0,0,1-.84-1.13,3.46,3.46,0,0,1-.31-1.45,3.1,3.1,0,0,1,.49-1.76,4.68,4.68,0,0,1,1.2-1.27H20.21v-.68h7.41a2.65,2.65,0,0,1,1.65.5,3.05,3.05,0,0,1,1,1.33,4.79,4.79,0,0,1,.33,1.79,4.22,4.22,0,0,1-.46,2.14,3.74,3.74,0,0,1-1.21,1.29l-.33-.51A2.71,2.71,0,0,0,29.68,53,4.14,4.14,0,0,0,30,51.34a3.59,3.59,0,0,0-.28-1.44,2.35,2.35,0,0,0-.8-1,2.16,2.16,0,0,0-1.31-.39H26.05a3.44,3.44,0,0,1,1.14,1.25A3.39,3.39,0,0,1,27.62,51.36Zm-.6-.17a2.75,2.75,0,0,0-.17-.95,3.66,3.66,0,0,0-.46-.85,2.94,2.94,0,0,0-.64-.63,1.52,1.52,0,0,0-.7-.3H22.66a2.8,2.8,0,0,0-1,.67,3.47,3.47,0,0,0-.69,1,2.94,2.94,0,0,0-.24,1.16A2.76,2.76,0,0,0,21,52.56a2.92,2.92,0,0,0,.74.92,3.33,3.33,0,0,0,1,.58,3.5,3.5,0,0,0,1.13.2A3,3,0,0,0,25.09,54a3.35,3.35,0,0,0,1-.66,3,3,0,0,0,.68-1A2.82,2.82,0,0,0,27,51.19Z"/><path class="cls-2" d="M25.38,46.05a1.72,1.72,0,0,1-1.14-.41,2.79,2.79,0,0,1-.76-1.14,4.81,4.81,0,0,1-.27-1.68,8.66,8.66,0,0,1,.09-1.22,6.71,6.71,0,0,1,.27-1.15h-.69a2.13,2.13,0,0,0-1.6.61,2.33,2.33,0,0,0-.59,1.7,3.51,3.51,0,0,0,.22,1.2,6.37,6.37,0,0,0,.65,1.27l-.5.31a7.58,7.58,0,0,1-.73-1.45,4.65,4.65,0,0,1-.25-1.4,3,3,0,0,1,.77-2.18,2.76,2.76,0,0,1,2.09-.81h3.59a.34.34,0,0,0,.25-.08.38.38,0,0,0,.1-.25h.58a1.86,1.86,0,0,1,0,.22v.15a.67.67,0,0,1-.63.61h-.57a3.47,3.47,0,0,1,1,1.37,4.56,4.56,0,0,1,.35,1.75,2.8,2.8,0,0,1-.29,1.31,2.25,2.25,0,0,1-.8.92A2,2,0,0,1,25.38,46.05Zm.59-5.3a1.89,1.89,0,0,0-.35-.23.76.76,0,0,0-.31-.07h-1.2a6,6,0,0,0-.29,1.11,7.85,7.85,0,0,0-.1,1.19,3.67,3.67,0,0,0,.44,1.87,1.32,1.32,0,0,0,1.17.72,1.52,1.52,0,0,0,.85-.26,1.79,1.79,0,0,0,.63-.7,2.18,2.18,0,0,0,.23-1,3.88,3.88,0,0,0-.3-1.54A2.48,2.48,0,0,0,26,40.75Z"/><path class="cls-2" d="M17.23,37.41v-.75l8.83,0a.74.74,0,0,0,.89-.8,4.28,4.28,0,0,0-.05-.49,2.57,2.57,0,0,0-.11-.44l.57-.15a5,5,0,0,1,.16.62,3.27,3.27,0,0,1,.07.64,1.39,1.39,0,0,1-.36,1,1.27,1.27,0,0,1-1,.38Z"/><path class="cls-2" d="M18.63,30.16l-.22.52-1.19-.91v-.86Zm9,.23a3.86,3.86,0,0,1-.29,1.5,3.68,3.68,0,0,1-.81,1.2,3.74,3.74,0,0,1-2.63,1.07,3.72,3.72,0,0,1-1.46-.28,3.85,3.85,0,0,1-1.2-.79,3.9,3.9,0,0,1-.83-1.2,3.83,3.83,0,0,1,0-3,3.94,3.94,0,0,1,.82-1.2,3.88,3.88,0,0,1,1.2-.8,3.67,3.67,0,0,1,1.45-.28,3.61,3.61,0,0,1,1.43.28,3.68,3.68,0,0,1,2,2A3.71,3.71,0,0,1,27.58,30.39Zm-3.73,3a3.12,3.12,0,0,0,2.68-1.5A2.84,2.84,0,0,0,27,30.41a2.77,2.77,0,0,0-.43-1.52,3.06,3.06,0,0,0-1.14-1.09,3.17,3.17,0,0,0-1.57-.41,3.08,3.08,0,0,0-1.56.41,3.31,3.31,0,0,0-1.14,1.09,2.84,2.84,0,0,0-.42,1.51,2.78,2.78,0,0,0,.44,1.52,3.13,3.13,0,0,0,2.72,1.5Z"/><path class="cls-2" d="M27.42,18.56v.74h-4a4,4,0,0,0-2.05.43,1.48,1.48,0,0,0-.64,1.34A3.06,3.06,0,0,0,21,22.35a3.53,3.53,0,0,0,.81,1.1,3.11,3.11,0,0,0,1.15.67h4.49v.74l-7.27,0v-.7H21.9a3.48,3.48,0,0,1-1-.83,4.39,4.39,0,0,1-.65-1.16A3.66,3.66,0,0,1,20,20.87a2.34,2.34,0,0,1,.22-1.08,1.77,1.77,0,0,1,.62-.71,2.75,2.75,0,0,1,1-.39,7.78,7.78,0,0,1,1.37-.13Z"/></g></g></svg>