<svg xmlns="http://www.w3.org/2000/svg" viewBox="0 0 55.24 55.24"><defs><style>.cls-1{fill:#f6f3e8;}</style></defs><g id="Capa_2" data-name="Capa 2"><g id="Diseño"><path class="cls-1" d="M50.77,0H4.47A4.48,4.48,0,0,0,0,4.47v46.3a4.47,4.47,0,0,0,4.47,4.47h46.3a4.47,4.47,0,0,0,4.47-4.47V4.47A4.48,4.48,0,0,0,50.77,0Zm.55,50.77a.55.55,0,0,1-.55.55h-13L37.66,33.5H44.1l1.16-7.73H37.57V22.69A13.32,13.32,0,0,1,37.86,19a3.89,3.89,0,0,1,.22-.6,2.26,2.26,0,0,1,.16-.26,2.11,2.11,0,0,1,1.11-.74,10.24,10.24,0,0,1,3.08-.22h3.06V10.07a29.9,29.9,0,0,0-4-.38,16.49,16.49,0,0,0-5.24.41,8.45,8.45,0,0,0-.85.28,9,9,0,0,0-4.08,3.17A10,10,0,0,0,29.62,18a32.44,32.44,0,0,0-.06,4.41v3.34H22.71V33.5h6.68l.08,17.82h-25a.55.55,0,0,1-.55-.55V4.47a.55.55,0,0,1,.55-.55h46.3a.55.55,0,0,1,.55.55Z"/></g></g></svg>