<svg xmlns="http://www.w3.org/2000/svg" viewBox="0 0 56.71 56.92"><defs><style>.cls-1{fill:#f6f3e8;}</style></defs><g id="Capa_2" data-name="Capa 2"><g id="Diseño"><path class="cls-1" d="M0,56.92,5.36,41.14A27.5,27.5,0,1,1,16,51.6Zm16.45-9.54.76.45A23.61,23.61,0,1,0,9.12,39.9l.48.77L6.16,50.8Z"/><path class="cls-1" d="M26.53,30.77c.33.3.68.58,1,.86a19.09,19.09,0,0,0,2.6,1.66c.46.24.93.47,1.41.67s1,.52,1.31.35.84-.81,1.16-1.17c.5-.57,1-1.14,1.45-1.75a1.15,1.15,0,0,1,1.38-.51A22.82,22.82,0,0,1,39.36,32l2.07,1c.33.16.67.32,1,.5s.55.22.66.44a.64.64,0,0,1,.07.27c.4,4.31-4,7.21-8,6.26a29.79,29.79,0,0,1-5.38-1.79,25.41,25.41,0,0,1-6-3.79,34.51,34.51,0,0,1-2.65-2.67,42.48,42.48,0,0,1-3.23-4.1,14.48,14.48,0,0,1-2.36-5.25c-.52-2.87.61-6.7,3.63-7.74a5.33,5.33,0,0,1,1.72-.27,1.73,1.73,0,0,1,.84.19c.41.23.54.73.71,1.14s.35.81.52,1.22l1.14,2.7.48,1.15a1.52,1.52,0,0,1,0,1.24,13.75,13.75,0,0,1-1.63,2.23c-.44.44-.58.81-.39,1.18a15.71,15.71,0,0,0,2,2.91A18.7,18.7,0,0,0,26.53,30.77Z"/></g></g></svg>