<?xml version="1.0" encoding="utf-8"?>
<!-- Generator: Adobe Illustrator 24.1.1, SVG Export Plug-In . SVG Version: 6.00 Build 0)  -->
<svg version="1.1" id="Capa_1" xmlns="http://www.w3.org/2000/svg" xmlns:xlink="http://www.w3.org/1999/xlink" x="0px" y="0px"
	 viewBox="0 0 213 63" style="enable-background:new 0 0 213 63;" xml:space="preserve">
<style type="text/css">
	.st0{fill:#F5F3E8;}
</style>
<g>
	<g>
		<g>
			<path class="st0" d="M20.2,28h-9.3V23h6.9c1.1,0,2-0.9,2-2c0-1.1-0.9-2-2-2h-6.9v-5.1h9.5c1.1,0,2-0.9,2-2c0-1.1-0.9-2.4-2-2.4
				H8.7c-1.1,0-1.9,1.2-1.9,2.3v18.7c0,1.1,0.9,1.9,1.9,1.9h11.4c1.2,0,2.2-1,2.2-2.2S21.4,28,20.2,28z"/>
			<path class="st0" d="M39.2,28H31V11.8c0-1.2-1-2.2-2.1-2.2c-1.2,0-2.1,1-2.1,2.2v19c0,0.9,0.7,1.7,1.6,1.7h10.9
				c1.2,0,2.1-1,2.1-2.2S40.4,28,39.2,28z"/>
			<path class="st0" d="M159.2,9.4c-1.1,0-2.1,0.9-2.1,2.1l0,13.2c-0.1,2-1.2,3.2-2.8,3.2c-0.9,0-2,0.7-2.2,1.6
				c-0.2,0.6,0,1.3,0.3,1.9c0.4,0.5,1,0.9,1.7,0.9c0.4,0,0.8,0,1.2,0c0.1,0,0.1,0,0.2,0c1.5,0,3.5-1.5,4.5-2.8
				c1.2-1.5,1.3-3.1,1.3-4.6V11.5C161.2,10.4,160.3,9.4,159.2,9.4z"/>
			<path class="st0" d="M203.9,9.5c-1.2,0-2.1,1-2.1,2.1l0,11.8l-10.2-13c-0.5-0.6-1.1-0.9-1.9-0.9c-1.3,0-2.4,1.1-2.4,2.4v18.4
				c0,1.2,1,2.1,2.1,2.1c1.2,0,2.1-1,2.1-2.1v-7.7c0-2.1,0-3.5,0-4.3l10.4,13.3c0.4,0.6,1.1,0.9,1.8,0.9c1.3,0,2.3-1,2.3-2.3V11.7
				C206,10.5,205.1,9.5,203.9,9.5z"/>
			<path class="st0" d="M147.7,28h-9.3v-5.1h6.9c1.1,0,2-0.9,2-2s-0.9-2-2-2h-6.9v-5.1h9.5c1.1,0,2-0.9,2-2c0-1.1-0.9-2.4-2-2.4
				h-11.7c-1.1,0-1.9,1.2-1.9,2.3v18.7c0,1.1,0.9,1.9,1.9,1.9h11.4c1.2,0,2.2-1,2.2-2.2C149.9,29,148.9,28,147.7,28z"/>
			<path class="st0" d="M180.5,27.9h-9.3v-5.1h6.9c1.1,0,2-0.9,2-2s-0.9-2-2-2h-6.9v-5.1h9.5c1.1,0,2-0.9,2-2c0-1.1-0.9-2.4-2-2.4
				H169c-1.1,0-1.9,1.2-1.9,2.3v18.7c0,1.1,0.9,1.9,1.9,1.9h11.4c1.2,0,2.2-1,2.2-2.2S181.7,27.9,180.5,27.9z"/>
			<path class="st0" d="M125.9,9.4c-0.8,0-1.6,0.5-2,1.1l-7.1,12.1l-7.2-12.2l0,0c-0.5-0.6-1.1-0.9-1.9-0.9c-1.3,0-2.4,1.1-2.4,2.4
				v18.4c0,1.2,1,2.1,2.1,2.1c1.2,0,2.1-1,2.1-2.1v-7.7c0-1.6,0-2.7,0-3.5l5,8.6c0.5,0.8,1.3,1.3,2.3,1.3c0,0,0,0,0,0
				c0.9,0,1.8-0.5,2.2-1.2l5-8.2c0,0.7,0,1.7,0,3v7.7c0,1.2,1,2.1,2.1,2.1s2.1-1,2.1-2.1V11.8C128.3,10.5,127.2,9.4,125.9,9.4z"/>
			<path class="st0" d="M88.7,14.7c-4.9,0-9,4-9,8.8c0,4.9,4,8.8,9,8.8c4.9,0,9-4,9-8.8C97.7,18.6,93.7,14.7,88.7,14.7z M88.9,27.9
				c-2.4,0-4.3-1.9-4.3-4.2c0-2.3,1.9-4.2,4.3-4.2s4.3,1.9,4.3,4.2C93.2,26,91.2,27.9,88.9,27.9z"/>
			<path class="st0" d="M102.2,12.4c-0.1-0.5-0.5-0.9-0.9-1.1L89.1,4.8l-12.2,6.5c-0.9,0.5-1.2,1.6-0.8,2.5c0.5,0.9,1.6,1.2,2.5,0.8
				l10.4-5.5l10.5,5.5c0.3,0.1,0.6,0.2,0.8,0.2c0.7,0,1.3-0.4,1.6-1C102.3,13.4,102.3,12.9,102.2,12.4z"/>
			<path class="st0" d="M73.1,26.1L73.1,26.1c-0.8-0.6-1.9-0.5-2.7,0.1c-1.3,1.2-3,1.8-4.8,1.8c-4,0-7.2-3.2-7.2-7.1
				c0-3.9,3.2-7.1,7.2-7.1c1.6,0,3,0.5,4.3,1.4c0.7,0.5,1.7,0.6,2.5,0.1c0.6-0.4,1-1,1-1.8c0-0.7-0.3-1.4-0.9-1.8
				c-2-1.5-4.4-2.2-6.9-2.2c-6.4,0-11.5,5.1-11.5,11.4s5.2,11.4,11.5,11.4c2.8,0,5.6-1,7.7-2.9c0.5-0.4,0.8-1.1,0.7-1.7
				C74,27.1,73.6,26.5,73.1,26.1z"/>
			<path class="st0" d="M15.8,54.6c-0.3-0.6-0.7-1.1-1.2-1.5c-0.4-0.3-0.9-0.6-1.5-0.8c0.5-0.3,0.9-0.7,1.2-1.2
				c0.4-0.7,0.6-1.4,0.6-2.2c0-0.9-0.2-1.6-0.7-2.3c-0.5-0.7-1.1-1.2-1.9-1.6c-0.8-0.3-1.9-0.5-3.3-0.5H5.3v17.3h5.1
				c1.8,0,3.2-0.5,4.3-1.5c1.1-1,1.6-2.2,1.6-3.6C16.2,55.9,16.1,55.2,15.8,54.6z M7.6,53.7h0.6c1.4,0,2.4,0.1,3,0.2
				c0.8,0.2,1.4,0.5,1.9,1c0.4,0.5,0.7,1,0.7,1.7c0,0.5-0.2,1-0.5,1.4c-0.3,0.5-0.7,0.8-1.3,1c-0.5,0.2-1.4,0.3-2.6,0.3H7.6V53.7z
				 M12,50.2c-0.3,0.4-0.7,0.7-1.2,0.9c-0.5,0.2-1.4,0.3-2.5,0.3H7.6v-4.6h1.7c1.1,0,1.9,0.2,2.4,0.6c0.5,0.4,0.7,0.9,0.7,1.5
				C12.4,49.3,12.3,49.8,12,50.2z"/>
			<polygon class="st0" points="47.7,46.8 47.7,44.5 38.1,44.5 38.1,61.7 47.6,61.7 47.6,59.4 40.3,59.4 40.3,53.6 47.6,53.6 
				47.6,51.3 40.3,51.3 40.3,46.8 			"/>
			<path class="st0" d="M80.7,54.7c-0.3-0.6-0.7-1.1-1.2-1.5c-0.4-0.3-0.9-0.6-1.5-0.8c0.5-0.3,0.9-0.7,1.2-1.2
				c0.4-0.7,0.6-1.4,0.6-2.2c0-0.9-0.2-1.6-0.7-2.3c-0.5-0.7-1.1-1.2-1.9-1.6c-0.8-0.3-1.9-0.5-3.3-0.5h-3.7v17.3h5.1
				c1.8,0,3.2-0.5,4.3-1.5c1.1-1,1.6-2.2,1.6-3.6C81.2,55.9,81,55.3,80.7,54.7z M78.7,56.7c0,0.5-0.2,1-0.5,1.4
				c-0.3,0.5-0.7,0.8-1.3,1c-0.5,0.2-1.4,0.3-2.6,0.3h-1.8v-5.7h0.6c1.4,0,2.4,0.1,3,0.2c0.8,0.2,1.4,0.5,1.9,1
				C78.5,55.4,78.7,56,78.7,56.7z M76.9,50.2c-0.3,0.4-0.7,0.7-1.2,0.9c-0.5,0.2-1.4,0.3-2.5,0.3h-0.6v-4.6h1.7
				c1.1,0,1.9,0.2,2.4,0.6c0.5,0.4,0.7,0.9,0.7,1.5C77.3,49.4,77.2,49.8,76.9,50.2z"/>
			<rect x="103.8" y="44.5" class="st0" width="2.4" height="17.3"/>
			<path class="st0" d="M140.4,48.2c-0.8-1.5-1.8-2.5-3.2-3.1c-0.9-0.4-2.4-0.6-4.4-0.6h-3.1v17.3h4.5c1.7,0,3.1-0.3,4-1
				c1-0.6,1.7-1.6,2.3-2.9c0.6-1.3,0.9-2.8,0.9-4.5C141.5,51.4,141.1,49.7,140.4,48.2z M131.7,46.8h0.6c1.8,0,3.2,0.2,4,0.5
				c1,0.4,1.8,1.1,2.4,2.2c0.6,1.1,0.9,2.4,0.9,3.9c0,1.5-0.3,2.7-0.8,3.7c-0.5,1-1.3,1.7-2.2,2c-0.7,0.3-1.9,0.4-3.7,0.4h-1.2V46.8
				z"/>
			<path class="st0" d="M170.6,44.5h-2.3l-5.8,17.2h2.6l1.8-5.5h5.3l1.8,5.5h2.5L170.6,44.5z M171.3,53.9h-3.6l1.8-5.3L171.3,53.9z"
				/>
			<path class="st0" d="M206.4,53.4c-0.7-0.6-1.8-1.1-3.2-1.5l-0.8-0.2c-1-0.2-1.7-0.6-2.2-1c-0.4-0.3-0.6-0.8-0.6-1.5
				c0-1,0.2-1.7,0.7-2.1c0.6-0.5,1.5-0.8,2.7-0.8c0.7,0,2,0.3,2.8,0.6l0.4,0.2l0.9-1.9l-0.4-0.2c-0.9-0.4-1.8-0.7-2.7-0.8
				c-2.1-0.2-3.7,0.2-4.9,1.1c-1,0.8-1.6,2.1-1.6,3.9c0,1.1,0.4,2.1,1.3,2.9c0.7,0.6,1.6,1.1,2.8,1.4l0.8,0.2
				c1.2,0.3,2.2,0.7,2.7,1.2c0.3,0.3,0.5,0.8,0.5,1.5c0,0.9-0.3,1.6-0.8,2.1c-0.5,0.5-1.4,0.8-2.6,0.8c-0.6,0-1-0.1-1.6-0.3
				l-0.3-0.1c-0.4-0.1-0.9-0.5-1.4-0.8c-0.1-0.1-0.3-0.2-0.4-0.3l-0.4-0.2l-1.3,1.4l0,0.2c0.1,0.4,1.3,1.1,1.5,1.2
				c0.5,0.3,1,0.5,1.5,0.6c0.7,0.2,1.4,0.3,2.2,0.3c0.4,0,0.7,0,1-0.1c0.1,0,0.2,0,0.3,0c0.1,0,0.2,0,0.3,0c0.8-0.1,1.9-0.4,2.8-1.2
				c0,0,0.1-0.1,0.1-0.1c0.8-0.9,1.3-2.2,1.3-3.8C207.7,55.2,207.2,54.2,206.4,53.4z"/>
		</g>
		<path class="st0" d="M176,6.8c-0.9,0.7-2.2-0.1-2.2-1.2c0-0.2,0-0.3,0.1-0.5l1.6-3.2c0.4-0.8,1.4-1,2.2-0.6v0
			c0.8,0.4,1,1.4,0.6,2.2l-2,2.9C176.2,6.6,176.1,6.7,176,6.8z"/>
	</g>
</g>
</svg>
