<svg xmlns="http://www.w3.org/2000/svg" viewBox="0 0 56.02 56.02"><defs><style>.cls-1{fill:#f6f3e8;}</style></defs><g id="Capa_2" data-name="Capa 2"><g id="Diseño"><path class="cls-1" d="M40.05,56H16a16,16,0,0,1-16-16V16A16,16,0,0,1,16,0H40.05A16,16,0,0,1,56,16V40.05A16,16,0,0,1,40.05,56ZM16,3.81A12.17,12.17,0,0,0,3.81,16V40.05A12.17,12.17,0,0,0,16,52.21H40.05A12.17,12.17,0,0,0,52.21,40.05V16A12.17,12.17,0,0,0,40.05,3.81Z"/><path class="cls-1" d="M28.23,43.51A14.66,14.66,0,1,1,42.88,28.86,14.67,14.67,0,0,1,28.23,43.51Zm0-25.5A10.85,10.85,0,1,0,39.07,28.86,10.87,10.87,0,0,0,28.23,18Z"/><circle class="cls-1" cx="43.49" cy="12.64" r="2.7"/></g></g></svg>