<?xml version="1.0" encoding="utf-8"?>
<!-- Generator: Adobe Illustrator 24.1.1, SVG Export Plug-In . SVG Version: 6.00 Build 0)  -->
<svg version="1.1" id="Capa_1" xmlns="http://www.w3.org/2000/svg" xmlns:xlink="http://www.w3.org/1999/xlink" x="0px" y="0px"
	 viewBox="0 0 1366 768" style="enable-background:new 0 0 1366 768;" xml:space="preserve">
<style type="text/css">
	.st0{fill:#303030;}
</style>
<g>
	<path class="st0" d="M1588.5,1219.7c-163.9,37.2-172.5-39.8-340.6-39.8c-168.1,0-168.1,40.3-336.2,40.3
		c-168.1,0-168.1-40.3-336.2-40.3c-168.1,0-168.1,40.3-336.2,40.3c-168.1,0-168.1-40.3-336.2-40.3s-176.7,77.1-340.6,39.8
		c-37.2-8.5,24.6-57.8,24.6-96c0-38.2-40.3-38.2-40.3-76.3c0-38.2,40.3-38.2,40.3-76.3c0-38.2-40.3-38.2-40.3-76.3
		c0-38.2,40.3-38.2,40.3-76.3c0-38.2-61.9-87.6-24.6-96c163.9-37.2,172.5,39.8,340.6,39.8c168.1,0,168.1-40.3,336.2-40.3
		c168.1,0,168.1,40.3,336.2,40.3c168.1,0,168.1-40.3,336.2-40.3c168.1,0,168.1,40.3,336.2,40.3s176.7-77.1,340.6-39.8
		c37.2,8.5-24.6,57.8-24.6,96c0,38.2,40.3,38.2,40.3,76.3c0,38.2-40.3,38.2-40.3,76.3c0,38.2,40.3,38.2,40.3,76.3
		c0,38.2-49.1,44.3-39.7,81.3C1577.6,1180.1,1625.7,1211.2,1588.5,1219.7z"/>
</g>
</svg>
