<?xml version="1.0" encoding="utf-8"?>
<!-- Generator: Adobe Illustrator 24.1.1, SVG Export Plug-In . SVG Version: 6.00 Build 0)  -->
<svg version="1.1" id="Capa_1" xmlns="http://www.w3.org/2000/svg" xmlns:xlink="http://www.w3.org/1999/xlink" x="0px" y="0px"
	 viewBox="0 0 1366 768" style="enable-background:new 0 0 1366 768;" xml:space="preserve">
<style type="text/css">
	.st0{fill:#F5C959;}
</style>
<g>
	<path class="st0" d="M-148.8,397.6c79.9-23.1,167.7,39.2,248,41.7c78.4,2.4,164-56.3,246.6-44.4c76.9,11.1,148.3,92.8,232,99.9
		c76.7,6.6,157.3-60.7,242.1-67c75.5-5.5,166.2,50.8,249.8,28.3c72.2-19.4,124-111.9,203.3-148.4c67.8-31.2,171.7-7.9,245.5-54.3
		c24.3-15.3,55.7-19.2,65.1,37.5c4.7,28.6-61.5,71.2-59.5,109.9c1.7,32.3,72.6,64.9,72.9,100.7c0.3,33.9-70,68.3-70.6,102.5
		c-0.6,35.3,68.3,72,67.1,104.7c-1.4,37.7-72.9,69.7-74.4,99.7c-3.2,61.8,84.6,132.2,33.6,139.1c-115.7,15.8-120.1-74-236.8-78.3
		c-116.7-4.3-119.3,65.7-236,61.4c-116.7-4.3-114.1-74.3-230.8-78.6c-116.7-4.3-119.3,65.7-236,61.4
		C496.4,909.3,499,839.3,382.3,835c-116.7-4.3-119.3,65.7-236,61.3S34.6,833.6-81.1,818.1c-31.2-4.2-46.1,20.9-57-15.4
		c-5.3-17.6,56.1-57.5,50-79.7c-5.3-19.3-78.4-22.6-83.5-43.6c-4.9-20.4,58.9-56,54.9-76.4c-4.2-21.5-76.8-31.5-79.2-51.2
		c-2.8-23.4,65.6-47.1,66.6-65.1C-127.7,457.8-164.9,402.3-148.8,397.6z"/>
</g>
</svg>
