<?xml version="1.0" encoding="utf-8"?>
<!-- Generator: Adobe Illustrator 24.1.1, SVG Export Plug-In . SVG Version: 6.00 Build 0)  -->
<svg version="1.1" id="Capa_1" xmlns="http://www.w3.org/2000/svg" xmlns:xlink="http://www.w3.org/1999/xlink" x="0px" y="0px"
	 viewBox="0 0 1366 768" style="enable-background:new 0 0 1366 768;" xml:space="preserve">
<style type="text/css">
	.st0{fill:#F5C959;}
	.st1{fill:#F3BB25;}
</style>
<path class="st0" d="M1173.4,416.5c-86.1-3.4-180.4,53.1-271.1,38.8c-84.5-13.3-163-97.2-254.9-106c-84.4-8.1-173.5,58.3-266.7,64.9
	c-83,5.9-181.9-48.9-273.8-23.4C68.2,401.5,34.5,429.9,0,461l-1,292h1366l1-293.4C1301.8,450.4,1235.8,418.9,1173.4,416.5z"/>
<g>
	<path class="st1" d="M1202.3,516.5c-69,13.5-133.3,67.1-207.2,45.9C938.4,546.1,890.4,457.8,810,442.9
		c-58.8-10.9-133.4,50.6-213.3,49.4c-61.3-1-133.1-67.9-210.5-59.4c-62.3,6.8-119.7,86.4-194.4,101.3
		c-55.2,11.1-126.5-28.5-192.1-24.6l0.1,258.9l1366-0.7l-0.1-256.9C1306.1,527.9,1244.3,508.3,1202.3,516.5z"/>
</g>
</svg>
