<?xml version="1.0" encoding="utf-8"?>
<!-- Generator: Adobe Illustrator 24.1.1, SVG Export Plug-In . SVG Version: 6.00 Build 0)  -->
<svg version="1.1" id="Capa_1" xmlns="http://www.w3.org/2000/svg" xmlns:xlink="http://www.w3.org/1999/xlink" x="0px" y="0px"
	 viewBox="0 0 1366 768" style="enable-background:new 0 0 1366 768;" xml:space="preserve">
<style type="text/css">
	.st0{fill:#F3BB25;}
</style>
<g>
	<path class="st0" d="M1509.4,44.9c-140.7,36.9-149.8-34.3-295.3-34.3c-145.4,0-145.4,34.9-290.8,34.9
		c-145.4,0-145.4-34.9-290.8-34.9c-145.4,0-145.4,34.9-290.8,34.9c-145.4,0-145.4-34.9-290.8-34.9c-145.4,0-154.6,71.2-295.3,34.3
		c-36.9-9.7,21.9-55,21.9-93.2c0-38.2-34.9-38.2-34.9-76.3c0-38.2,34.9-38.2,34.9-76.3c0-38.2-34.9-38.2-34.9-76.3
		c0-38.2,34.9-38.2,34.9-76.3s-58.8-83.5-21.9-93.2c140.7-36.9,149.8,34.3,295.3,34.3c145.4,0,145.4-34.9,290.8-34.9
		c145.4,0,145.4,34.9,290.8,34.9c145.4,0,145.4-34.9,290.8-34.9c145.4,0,145.4,34.9,290.8,34.9s154.6-71.2,295.3-34.3
		c36.9,9.7-21.9,55-21.9,93.2c0,38.2,34.9,38.2,34.9,76.3c0,38.2-34.9,38.2-34.9,76.3c0,38.2,34.9,38.2,34.9,76.3
		c0,38.2-43.9,43.8-34.3,80.7C1501,6.1,1546.3,35.2,1509.4,44.9z"/>
</g>
</svg>
