<?xml version="1.0" encoding="utf-8"?>
<!-- Generator: Adobe Illustrator 24.1.1, SVG Export Plug-In . SVG Version: 6.00 Build 0)  -->
<svg version="1.1" id="Capa_1" xmlns="http://www.w3.org/2000/svg" xmlns:xlink="http://www.w3.org/1999/xlink" x="0px" y="0px"
	 viewBox="0 0 1366 768" style="enable-background:new 0 0 1366 768;" xml:space="preserve">
<style type="text/css">
	.st0{fill:#F5C959;}
	.st1{fill:#F3BB25;}
</style>
<path class="st0" d="M1356.7,170.8c-82.6,12.8-170.8-49.9-252.4-47.2c-82.2,2.8-164.5,71.4-247.2,67.9
	c-81.3-3.4-159.5-78.6-242.9-84c-80.6-5.2-166.3,59.4-250.3,55.9c-80.3-3.4-161.4-75.1-246-73.8c-79.8,1.2-158,75.1-242.7,83.2
	c-79,7.5-170.1-50.7-254.3-35c-30.5,5.7-72,24.4-73.4-6.3c-0.9-19.5,71.8-37.8,78.5-65.7c5.3-21.9-54.6-65.2-46.3-89.6
	c7.7-22.6,82-21.5,91.1-44.3c9.2-23.2-45.8-72.9-36.4-94.4c10.7-24.5,84.8-18.3,93.9-37.8c18.6-39.7-39.5-112-3.2-115.5
	c150.5-14.4,155,67.8,306.1,65.8s150.3-72,301.4-74c151.2-2,152.1,68,303.3,66c151.2-2,150.3-72,301.4-74c151.2-2,152.1,68,303.3,66
	c151.2-2,150.3-72,301.4-74s148.9,50.6,299.3,65.8c48.3,4.9,11.6,18.3-22.9,66c-16.6,22.9-92.1,6.8-114.6,34.7
	c-19.3,23.9,12.6,94.5-10.1,119.4c-21.5,23.5-94.1-2.2-117.9,20.1c-23.9,22.3-4,97.2-29.6,116.2c-26.9,20-90.9-21.9-118.8-8.1
	C1397.1,89.3,1387.3,166,1356.7,170.8z"/>
<path class="st1" d="M1839.6,94.2c-113.5,0.9-216.3-63.6-308.1-56.1c-108.9,8.9-199.9,90.6-296.7,101.9
	c-98.8,11.5-202.6-47.5-310-41.5c-92.4,5.2-191.3,76.7-304.7,72.2c-91.3-3.6-186.2-80.9-299-93.7c-91.8-10.4-201.6,44.9-312,26.7
	C-83.6,88.5-170.8,1.5-278.8-20.1c-25.1-5-64.8,56.9-84.2,50.7c-25.4-8.2-17.8-80.8-34.6-90.7c-24.4-14.3-88.6,16.9-97.7,0.4
	c-12-21.7,51.7-50.6,58.8-72.7c6.6-20.5-39.7-74.5-23.6-92.4c15.5-17.2,79.2,20.2,97.4,8.1c23.1-15.3,24.2-89.4,40.7-91.4
	c150.8-10.9,155.8,59.4,306.7,48.9c150.9-10.4,146-80.3,296.9-90.7c150.9-10.4,155.7,59.4,306.6,48.9
	c150.9-10.4,146-80.3,296.9-90.7c150.9-10.4,155.7,59.4,306.6,48.9c150.9-10.4,146-80.3,296.9-90.7c150.9-10.4,152.2,45.8,303.4,49
	c36.1,0.8,43.1-17,54.9,24.8c5.7,20.4-55.4,62.3-48.8,87.9c5.7,22.3,79.6,29.8,85,53.9c5.3,23.5-58.4,61.2-54.3,84.6
	c4.4,24.8,77.3,39.3,79.6,61.8c2.8,27.2-66.1,52.1-68,72.3C1837.2,34.5,1861.6,94,1839.6,94.2z"/>
</svg>
